<?xml version="1.0" standalone="no"?>
<!DOCTYPE svg PUBLIC "-//W3C//DTD SVG 20010904//EN"
 "http://www.w3.org/TR/2001/REC-SVG-20010904/DTD/svg10.dtd">
<svg version="1.0" xmlns="http://www.w3.org/2000/svg"
 width="351.000000pt" height="351.000000pt" viewBox="0 0 351.000000 351.000000"
 preserveAspectRatio="xMidYMid meet">
<metadata>
Created by potrace 1.11, written by Peter Selinger 2001-2013
</metadata>
<g transform="translate(0.000000,351.000000) scale(0.100000,-0.100000)"
fill="#000000" stroke="none">
<path d="M1310 2753 c-157 -312 -290 -580 -296 -594 l-11 -25 318 0 c176 1
319 -2 319 -5 0 -6 -49 -101 -135 -264 -142 -269 -235 -445 -258 -492 l-27
-52 201 1 c110 0 202 -2 205 -4 6 -7 -360 -908 -397 -977 -32 -61 -24 -56 60
33 25 27 64 68 86 91 22 23 101 106 175 184 206 218 205 218 360 381 80 84
160 169 179 189 18 20 68 72 110 116 42 44 144 152 226 239 83 88 162 172 178
187 15 16 27 31 27 33 0 3 -99 7 -219 8 l-220 3 170 399 c93 220 168 401 166
403 -2 1 -110 3 -240 3 -191 1 -237 3 -237 14 0 8 7 19 15 26 8 7 15 16 15 20
0 5 23 48 51 97 28 48 65 113 81 143 17 30 50 89 73 130 23 41 53 95 67 120
14 25 39 70 57 101 l31 56 -422 2 -423 2 -285 -568z"/>
</g>
</svg>
